<svg width="23" height="23" viewBox="0 0 23 23" fill="none" xmlns="http://www.w3.org/2000/svg">
<path d="M21.5292 17.61L18.2861 14.3592C17.6401 13.7143 16.5704 13.7339 15.9019 14.4041L14.268 16.0414C14.1648 15.9844 14.0579 15.9248 13.9456 15.8616C12.9138 15.2886 11.5016 14.5033 10.0156 13.0128C8.52518 11.5191 7.74087 10.1016 7.16741 9.06679C7.1069 8.95716 7.04892 8.85147 6.99167 8.75109L8.08825 7.65365L8.62738 7.11264C9.29688 6.44144 9.31534 5.36958 8.67088 4.72287L5.42775 1.47168C4.78329 0.825876 3.71307 0.845468 3.04357 1.51667L2.12955 2.43802L2.15453 2.46287C1.84804 2.85483 1.59193 3.30689 1.40135 3.79438C1.22566 4.25842 1.11628 4.70123 1.06627 5.14494C0.638032 8.70314 2.26035 11.9551 6.6631 16.3679C12.749 22.4672 17.6535 22.0064 17.8651 21.9839C18.3259 21.9287 18.7675 21.8183 19.2163 21.6436C19.6985 21.4549 20.1493 21.1985 20.5401 20.892L20.5601 20.9098L21.486 20.001C22.1541 19.3299 22.1734 18.2577 21.5292 17.61Z" stroke="#FE457C"/>
</svg>
