<svg width="31" height="31" viewBox="0 0 31 31" fill="none" xmlns="http://www.w3.org/2000/svg">
<path d="M30.8639 9.06054C30.7278 7.44259 30.4896 6.34238 30.0812 5.33925C29.7069 4.33612 29.1625 3.49478 28.2777 2.62109C27.3589 1.74739 26.6103 1.262 25.5554 0.873695C24.5346 0.517745 23.4797 0.258873 21.8123 0.129436C20.281 0 19.7706 0 15.517 0C11.2634 0 10.753 0 9.05159 0.129436C7.48628 0.129436 6.32931 0.388309 5.30845 0.873695C4.2876 1.22965 3.50494 1.74739 2.58617 2.62109C1.6674 3.49478 1.15697 4.36848 0.782656 5.33925C0.408342 6.31002 0.136114 7.44259 0.136114 9.06054C0 10.7756 0 11.2933 0 15.5C0 19.7067 0 20.2244 0.136114 21.9395C0.272228 23.5574 0.510428 24.6576 0.918771 25.6608C1.29308 26.6639 1.83754 27.5052 2.72228 28.3789C3.64105 29.2526 4.38968 29.738 5.44457 30.1263C6.46542 30.4823 7.52031 30.7411 9.18771 30.8706C10.753 31 11.2634 31 15.517 31C15.7552 31 15.9934 31 16.1976 31V18.7359H12.9649V14.5292H16.1976V12.9113C16.1976 10.096 18.4094 7.57202 21.1317 7.57202H24.7047V11.7463H21.1317C20.7574 11.7463 20.281 12.1994 20.281 12.8789V14.5616H24.6707V18.7359H20.281V30.9676C20.8255 30.9353 21.2338 30.9353 21.8123 30.8706C23.4797 30.7411 24.5346 30.5146 25.5554 30.1263C26.5763 29.7704 27.4951 29.2526 28.2777 28.3789C29.1965 27.5052 29.7069 26.6315 30.0812 25.6608C30.4555 24.6576 30.7278 23.5574 30.8639 21.9395C31 20.3215 31 19.7067 31 15.5C31 11.2933 31 10.7756 30.8639 9.06054Z" fill="#878787"/>
</svg>
