<svg width="37" height="37" viewBox="0 0 37 37" fill="none" xmlns="http://www.w3.org/2000/svg">
<g opacity="0.4">
<path d="M32.646 0H3.27928C1.46833 0 0 1.4701 0 3.28323V32.6853C0 34.4984 1.46833 35.9685 3.27928 35.9685H19.5778V21.2675H14.6833V16.3671H19.5778V13.721C19.5778 8.72261 22.025 6.56646 26.1363 6.56646C28.0941 6.56646 29.1709 6.71347 29.6603 6.76247V11.4668H26.8216C25.0596 11.4668 24.4722 12.3979 24.4722 14.26V16.3671H29.6114L28.9262 21.2675H24.4722V35.9685H32.646C34.4569 35.9685 35.9252 34.4984 35.9252 32.6853V3.28323C35.8763 1.4701 34.408 0 32.646 0Z" transform="translate(0.716309 0.705078)" fill="#4167B2" style="mix-blend-mode:luminosity"/>
</g>
</svg>
