<svg width="90" height="18" viewBox="0 0 90 18" fill="none" xmlns="http://www.w3.org/2000/svg">
<g style="mix-blend-mode:luminosity">
<path d="M13.9389 5.71705C14.2019 5.71705 14.3522 6.05556 14.3522 6.77019C14.3522 7.14631 14.2019 7.59766 13.8637 8.12423C13.5632 8.6508 13.1499 9.13975 12.6239 9.5911C12.1355 10.0424 11.5719 10.4186 10.9332 10.6819C10.3321 10.9827 9.73092 11.0956 9.12978 11.0956C8.34079 11.0956 7.81479 10.381 7.51423 8.98931C7.13851 9.62871 6.61252 10.1553 5.97381 10.569C5.3351 10.9827 4.50854 11.2084 3.41897 11.2084C2.36698 11.2084 1.50285 10.8699 0.864136 10.2305C0.300569 9.5911 0 8.76363 0 7.82333C0 5.2657 0.864136 3.23465 2.55484 1.76777C3.26869 1.16598 3.94497 0.752243 4.58368 0.564182C5.22239 0.376121 5.8611 0.263285 6.53738 0.263285C7.21366 0.263285 7.77722 0.376122 8.22808 0.639407C8.4535 0.188061 8.67893 7.17395e-08 8.94193 7.17395e-08C9.46792 7.17395e-08 9.95635 0.225673 10.4448 0.677019C10.9332 1.12836 11.1586 1.57971 11.1586 1.95583C10.9332 2.44479 10.6326 3.04658 10.2193 3.7236C10.1066 4.40062 10.0315 5.37854 10.0315 6.61974C10.0315 7.86094 10.1818 8.50035 10.5199 8.50035C10.8956 8.50035 11.8725 7.71049 13.3753 6.16839C13.6383 5.8675 13.8262 5.71705 13.9389 5.71705ZM3.30626 7.07108C3.30626 8.23706 3.71954 8.80124 4.58368 8.80124C5.48538 8.80124 6.27438 8.31229 6.87552 7.33437C7.10094 6.99586 7.25123 6.58213 7.40151 6.13078C7.40151 4.43823 7.5518 3.00897 7.85237 1.80538C6.65009 2.03106 5.56053 2.63285 4.65882 3.57315C3.75711 4.51346 3.30626 5.67943 3.30626 7.07108Z" transform="translate(0 6.22656)" fill="#C7C7C8"/>
<path d="M12.1355 4.47585C12.1355 3.98689 11.8349 3.7236 11.2713 3.7236C10.8956 3.7236 10.4448 4.09972 9.95635 4.85197C9.46792 5.60421 9.12978 6.43168 8.90436 7.29676V7.33437C8.90436 7.86094 8.9795 8.38751 9.12978 8.91408C9.28007 9.44065 9.35521 9.81677 9.35521 10.0424C9.35521 10.569 8.7165 11.058 7.43908 11.5469C7.25123 11.6222 7.06337 11.6598 6.91309 11.6598C6.53738 11.6598 6.27438 11.4717 6.12409 11.058C5.97381 10.6819 5.89867 10.1553 5.89867 9.47826C5.89867 8.80124 5.89867 8.16184 5.97381 7.59765C6.01138 6.99586 6.04895 6.46929 6.08652 5.94272C6.12409 5.45376 6.16166 5.00242 6.19924 4.62629C6.23681 4.25017 6.27438 3.94928 6.27438 3.68599C6.27438 3.15942 6.04895 2.93375 5.56053 2.93375C5.10967 2.93375 4.54611 3.49793 3.94497 4.55107C3.34383 5.64182 3.00569 6.5069 3.00569 7.14631C3.00569 7.78571 3.08083 8.38751 3.23112 8.91408C3.3814 9.44065 3.45654 9.81677 3.45654 10.0424C3.45654 10.569 2.81784 11.058 1.54042 11.5469C1.35256 11.6222 1.16471 11.6598 1.01442 11.6598C0.638709 11.6598 0.375711 11.4717 0.225427 11.058C0.0751421 10.6819 -2.86645e-07 10.0801 -2.86645e-07 9.25259C-2.86645e-07 7.1087 0.0751422 5.5666 0.262998 4.62629C0.488425 3.23464 1.01442 1.91822 1.80341 0.639407C2.06641 0.225673 2.36698 1.43479e-07 2.66755 1.43479e-07C3.15598 1.43479e-07 3.60683 0.413733 4.05768 1.20359C4.17039 1.42926 4.28311 1.61732 4.32068 1.80538C5.03453 0.902691 5.89867 0.451346 6.87552 0.451346C7.51423 0.451346 8.11536 0.677019 8.60379 1.09075C9.12978 1.50449 9.35521 2.06867 9.35521 2.70807V2.97136C10.2569 1.843 11.3841 1.2412 12.699 1.2412C13.5256 1.2412 14.1267 1.46687 14.54 1.88061C14.9533 2.29434 15.1787 2.82091 15.1787 3.42271C15.1787 4.0245 15.1412 4.58868 15.0285 5.07764C14.9533 5.5666 14.8406 6.05556 14.7279 6.46929C14.6152 6.92064 14.5025 7.29676 14.4273 7.63527C14.3522 7.97378 14.277 8.23706 14.277 8.42512C14.277 8.61318 14.3522 8.72602 14.4649 8.72602C14.6903 8.72602 14.9533 8.57557 15.2914 8.31229C15.6296 8.01139 15.9677 7.71049 16.2683 7.37198C16.6064 7.03347 16.907 6.73258 17.17 6.43168C17.433 6.13078 17.6209 6.01794 17.7336 6.01794C17.959 6.01794 18.0341 6.28123 18.0341 6.77019C18.0341 7.82333 17.5081 8.83886 16.4562 9.85438C15.4042 10.8323 14.277 11.3589 13.0748 11.3589C11.9852 11.3589 11.4592 10.381 11.4592 8.38751C11.4592 7.89855 11.5343 7.22153 11.7222 6.31884C12.0603 5.49137 12.1355 4.85197 12.1355 4.47585Z" transform="translate(11.7598 5.96387)" fill="#C7C7C8"/>
<path d="M9.20728 8.91408C8.005 10.3057 6.5773 11.0204 4.92417 11.0204C3.27104 11.0204 2.03119 10.6066 1.20463 9.74155C0.378063 8.87647 -0.0352208 7.82333 0.00235035 6.58213C0.00235035 4.77674 0.565917 3.23465 1.69305 1.95583C2.82018 0.677019 4.32303 -1.43479e-07 6.16402 -1.43479e-07C6.99058 -1.43479e-07 7.66686 0.112837 8.19286 0.300898C9.09456 0.677019 9.50785 1.01553 9.50785 1.31643C9.50785 1.5421 8.86914 1.69255 7.66686 1.69255C6.42701 1.69255 5.37502 2.14389 4.54846 2.97136C3.72189 3.83644 3.30861 4.88958 3.30861 6.20601C3.30861 6.88302 3.49647 7.44721 3.90975 7.89855C4.32303 8.3499 4.8866 8.57557 5.60045 8.57557C6.3143 8.57557 6.91544 8.42512 7.40386 8.12423C6.35187 7.40959 5.7883 6.35645 5.7883 5.00242C5.7883 4.28779 6.0513 3.61077 6.5773 3.04658C7.10329 2.44479 7.77957 2.14389 8.64371 2.14389C9.47027 2.14389 10.0714 2.36957 10.4471 2.82091C10.8228 3.27226 10.9731 3.87405 10.9731 4.6263C10.9731 5.34093 10.7853 6.13078 10.4471 6.95825H10.5974C11.2737 6.95825 11.8373 6.69496 12.3257 6.24362C12.5135 6.05556 12.6638 5.90511 12.7765 5.75466C12.8892 5.60421 13.0395 5.5666 13.1522 5.5666C13.3777 5.5666 13.4528 5.82988 13.4528 6.31884C13.4528 7.22153 13.1898 7.93616 12.6262 8.38751C12.1003 8.83886 11.4991 9.06453 10.8228 9.06453C10.2217 9.06453 9.65813 8.9893 9.20728 8.91408ZM9.01942 6.28123C9.28242 5.75466 9.39513 5.22809 9.39513 4.70152C9.39513 4.17495 9.24485 3.94928 8.90671 3.94928C8.75642 3.94928 8.64371 4.06211 8.56857 4.25017C8.49343 4.43823 8.41828 4.6263 8.41828 4.81436C8.41828 5.41615 8.60614 5.90511 9.01942 6.28123Z" transform="translate(27.0864 6.45215)" fill="#C7C7C8"/>
<path d="M2.25427 4.51346C3.49927 4.51346 4.50854 3.50309 4.50854 2.25673C4.50854 1.01037 3.49927 0 2.25427 0C1.00927 0 0 1.01037 0 2.25673C0 3.50309 1.00927 4.51346 2.25427 4.51346Z" transform="translate(85.0986 12.96)" fill="#88D6F4"/>
<path d="M14.8782 11.6598C15.1412 11.6598 15.2539 11.9983 15.2539 12.7129C15.2539 13.089 15.1036 13.5404 14.7655 14.0669C14.4649 14.5935 14.0516 15.0825 13.5256 15.5338C13.0372 15.9852 12.4736 16.3613 11.8349 16.6246C11.2338 16.9255 10.6326 17.0383 10.0691 17.0383C9.5055 17.0383 9.09221 16.9255 8.75407 16.7374C8.4535 16.5117 8.19051 16.2485 8.00265 15.8723C7.73965 15.3458 7.5518 14.3678 7.36394 12.9386C7.21366 11.5093 7.0258 10.4938 6.87552 9.92961C6.49981 9.85438 6.1241 9.70393 5.8611 9.47826C5.56053 9.25259 5.41024 8.95169 5.41024 8.61318C5.41024 8.27467 5.56053 8.01139 5.8611 7.86094C6.16167 7.71049 6.53737 7.63527 6.91308 7.63527C7.32637 7.63527 7.66451 7.7481 7.96508 7.93616C8.37836 7.59766 8.7165 7.18392 8.9795 6.69496C9.24249 6.20601 9.35521 5.5666 9.35521 4.77674C9.35521 3.98689 9.09221 3.34748 8.52864 2.85852C8.00265 2.36957 7.21365 2.14389 6.16166 2.14389C5.10967 2.14389 4.32068 2.21912 3.75711 2.40718C3.19355 2.55763 2.70512 2.74569 2.32941 2.93375C1.91613 3.12181 1.57799 3.30987 1.27742 3.46032C0.976847 3.61077 0.676283 3.7236 0.413285 3.7236C0.150287 3.7236 0 3.64838 0 3.46032C0 3.27226 0.150287 3.00897 0.413285 2.63285C0.713854 2.25673 1.12713 1.843 1.6907 1.46687C3.08083 0.488958 4.65882 5.60463e-10 6.42466 5.60463e-10C8.19051 5.60463e-10 9.61821 0.338509 10.7829 1.01553C12.1355 1.80538 12.7742 2.97136 12.7742 4.55107C12.7742 5.82988 12.436 6.92064 11.7598 7.78572C11.0835 8.65079 10.2193 9.25259 9.20493 9.62871C9.43035 10.1177 9.61821 10.6442 9.76849 11.246C9.91878 11.8102 10.0691 12.3368 10.1818 12.8257C10.3321 13.3147 10.4823 13.6908 10.6326 14.0293C10.8205 14.3302 11.0083 14.5183 11.2713 14.5183C11.5343 14.5183 11.8349 14.3678 12.173 14.0669C12.5112 13.766 12.8869 13.4652 13.225 13.1266C13.5632 12.7881 13.9013 12.4496 14.1643 12.1487C14.5776 11.8102 14.7655 11.6598 14.8782 11.6598ZM5.0721 3.53554C5.25996 3.53554 5.37267 3.79883 5.37267 4.28779C5.37267 4.81436 5.3351 5.2657 5.29753 5.71705C5.14725 6.58213 4.99696 7.40959 4.77153 8.16184C4.24554 10.1929 3.94497 11.3965 3.94497 11.735V15.0449C3.94497 15.8723 3.6444 16.3989 3.00569 16.6998C2.70512 16.8502 2.44212 16.9631 2.17913 17.0759C1.91613 17.1888 1.61556 17.264 1.27742 17.264C0.638707 17.264 0.338138 16.5493 0.338138 15.0825C0.338138 13.6156 0.676283 11.8102 1.35256 9.5911C2.02884 7.37198 2.74269 5.67943 3.45654 4.55107C3.60683 4.3254 3.83225 4.09972 4.09525 3.83644C4.43339 3.64838 4.73396 3.53554 5.0721 3.53554Z" transform="translate(49.2183 0.697266)" fill="#88D6F4"/>
<path d="M22.956 11.6974C23.219 11.6974 23.3317 12.0359 23.3317 12.7505C23.3317 13.1266 23.1814 13.578 22.8432 14.1046C22.5427 14.6311 22.1294 15.1201 21.6034 15.5714C21.115 16.0228 20.5514 16.3989 19.9127 16.6622C19.3116 16.9631 18.6353 17.0759 17.959 17.0759C17.2827 17.0759 16.7567 16.8502 16.3434 16.3989C15.9677 15.9476 15.7799 15.4586 15.7799 14.8944C15.7799 14.3302 15.855 13.7284 16.0429 13.0514C16.2307 12.3744 16.4186 11.6222 16.644 10.8699C17.2076 8.87647 17.5081 7.44721 17.5081 6.65735C17.5081 6.31884 17.4706 6.05556 17.3579 5.8675C17.2827 5.67944 17.0949 5.5666 16.8319 5.5666C16.381 5.5666 15.8926 5.82988 15.4042 6.39407C14.8782 6.92064 14.4273 7.63527 13.9765 8.46274C12.9245 10.381 12.3985 12.2616 12.3233 14.1046C12.3609 14.3302 12.3985 14.5183 12.3985 14.744C12.436 14.9696 12.436 15.1953 12.436 15.421C12.436 15.9099 12.2106 16.3613 11.7222 16.7374C11.2338 17.1511 10.7078 17.3392 10.1442 17.3392C9.80606 17.3392 9.54307 17.1511 9.39278 16.8126C9.2425 16.4741 9.12978 16.0604 9.12978 15.5714C9.12978 15.0825 9.24249 14.4055 9.46792 13.5404C9.69335 12.6753 9.95635 11.7726 10.2193 10.7947C10.9332 8.23706 11.3089 6.35645 11.3089 5.11525C11.3089 4.47585 11.2338 3.98689 11.0835 3.61077C10.9332 3.23465 10.6326 3.0842 10.1818 3.0842C9.35521 3.0842 8.56621 3.64838 7.77722 4.81436C6.98823 5.98033 6.27438 7.78572 5.63567 10.1929C5.48538 10.8323 5.3351 11.3589 5.25996 11.8478L5.22239 12.2616C5.52296 13.6532 5.63567 14.5559 5.63567 14.9696C5.63567 15.8347 5.3351 16.4365 4.69639 16.7374C4.39582 16.8879 4.13282 17.0007 3.86983 17.1135C3.60683 17.2264 3.34383 17.3016 3.04326 17.3016C2.29184 17.3016 1.91613 16.587 1.91613 15.1577C1.91613 13.7284 2.32941 10.9075 3.1184 6.73258C3.41897 5.22809 3.53169 4.40062 3.53169 4.21256C3.53169 3.00897 3.23112 2.36957 2.59241 2.36957C2.36698 2.36957 2.17913 2.44479 2.02884 2.55763C1.84099 2.67046 1.6907 2.82091 1.50284 2.93375C1.31499 3.0842 1.16471 3.19703 0.97685 3.30987C0.788995 3.42271 0.60114 3.49793 0.338142 3.49793C0.112716 3.49793 -1.14658e-06 3.30987 -1.14658e-06 2.89614C-1.14658e-06 2.06867 0.375712 1.39165 1.16471 0.86508C1.91613 0.338509 2.78026 0.0376122 3.83225 0.0376122C5.18481 0.0376122 5.97381 0.677019 6.23681 1.91822C6.31195 2.29434 6.34952 2.70808 6.38709 3.12181C7.51422 1.01553 8.90435 0 10.5951 0C12.436 0 13.488 0.902692 13.7886 2.67046C13.8637 3.19703 13.9013 3.7236 13.9013 4.3254V4.51346C14.8782 3.15942 16.0429 2.4824 17.3579 2.4824C19.2364 2.4824 20.2133 3.61077 20.2133 5.90511C20.2133 6.88302 20.063 8.049 19.7624 9.40304C19.4618 10.7195 19.2364 11.6974 19.0861 12.2616C18.9358 12.8257 18.8607 13.2771 18.8607 13.6156C18.8607 14.1798 19.0486 14.4807 19.4618 14.4807C19.8751 14.4807 20.8144 13.6908 22.3173 12.1487C22.6178 11.8478 22.8432 11.6974 22.956 11.6974Z" transform="translate(60.5649 0.660156)" fill="#88D6F4"/>
<path d="M12.8869 8.65079C13.2626 8.65079 13.4505 9.02692 13.4505 9.74155C13.4505 10.4562 13.3002 11.246 12.962 12.0735C12.6239 12.901 12.1355 13.6908 11.4592 14.4807C10.7829 15.2705 9.95635 15.9099 8.90436 16.4741C7.85236 17.0383 6.65009 17.3016 5.25996 17.3016C3.86983 17.3016 2.62998 16.8502 1.57799 15.9099C0.525995 14.9696 0 13.6156 0 11.8478C0 10.0801 0.262998 8.46273 0.751422 7.03347C1.23985 5.60421 1.91613 4.36301 2.70512 3.30987C3.53168 2.25673 4.43339 1.46687 5.48538 0.86508C6.53737 0.300897 7.51423 5.60466e-10 8.41593 5.60466e-10C10.0315 5.60466e-10 10.8581 0.714631 10.8581 2.1815C10.8581 3.00897 10.7078 3.68599 10.4072 4.17495C10.1066 4.66391 9.80606 4.92719 9.46792 4.92719C9.05464 4.92719 8.67893 4.77674 8.37836 4.43823C8.07779 4.09972 7.70208 3.94928 7.32637 3.91166C6.95066 3.91166 5.89867 3.87405 5.03453 5.2657C4.43339 6.24362 4.50854 6.16839 4.28311 6.8078C3.83226 8.12422 3.53169 9.17737 3.53169 10.9451C3.56926 11.8102 4.32068 13.1266 4.99696 13.5404C5.44781 13.8413 6.01138 14.0669 6.65009 13.9917C8.00265 13.8037 8.75407 13.1643 9.31764 12.6001C9.84364 12.0359 10.2945 11.5469 10.7829 10.9827C11.2713 10.4186 11.6846 9.892 12.0603 9.44065C12.436 8.91408 12.699 8.65079 12.8869 8.65079Z" transform="translate(38.5107 0.698242)" fill="#88D6F4"/>
</g>
</svg>
