<svg width="32" height="32" viewBox="0 0 32 32" fill="none" xmlns="http://www.w3.org/2000/svg">
<g style="mix-blend-mode:luminosity">
<path d="M28.9138 0H23.1852C21.7996 0 20.6619 1.13924 20.6619 2.52675V9.94065H12.3684C11.0244 9.94065 9.92823 11.0383 9.92823 12.4057V20.7105H2.46161C1.09615 20.7105 -7.68121e-08 21.8082 -7.68121e-08 23.1755V28.9751C-7.68121e-08 30.3424 1.09615 31.4401 2.46161 31.4817H28.9352C30.3208 31.4817 31.4585 30.3424 31.4585 28.9549V2.52801C31.4371 1.13924 30.2994 0 28.9138 0Z" transform="translate(0.464844)" fill="url(#paint0_linear)"/>
<path d="M28.9138 0H23.1852C21.7996 0 20.6619 1.13924 20.6619 2.52675V9.94065H12.3684C11.0244 9.94065 9.92823 11.0383 9.92823 12.4057V20.7105H2.46161C1.09615 20.7105 -7.68121e-08 21.8082 -7.68121e-08 23.1755V28.9751C-7.68121e-08 30.3424 1.09615 31.4401 2.46161 31.4817H28.9352C30.3208 31.4817 31.4585 30.3424 31.4585 28.9549V2.52801C31.4371 1.13924 30.2994 0 28.9138 0Z" transform="translate(0.464844)" fill="url(#paint1_linear)"/>
<path d="M8.21039 0H2.52327C1.13768 0 0 1.13924 0 2.52675V31.4804H8.21039C9.59599 31.4804 10.7337 30.3412 10.7337 28.9537V2.52675C10.7337 1.13924 9.59599 0 8.21039 0Z" transform="translate(21.1675)" fill="#F57C00"/>
<path d="M9.92697 2.48642V10.7711H2.48174C1.11628 10.7711 -7.68121e-08 11.889 -7.68121e-08 13.2563V19.0559C-7.68121e-08 20.4232 1.11628 21.541 2.48174 21.541H20.682V-1.53836e-07H12.41C11.0445 -1.53836e-07 9.92697 1.11908 9.92697 2.48642Z" transform="translate(0.464355 9.93945)" fill="#FFC107"/>
<path d="M6.14497e-07 -1.53836e-07V21.5398H8.21039C9.59599 21.5398 10.7337 20.4005 10.7337 19.013V10.7699L6.14497e-07 -1.53836e-07Z" transform="translate(21.1465 9.93945)" fill="url(#paint2_linear)"/>
<path opacity="0.2" d="M2.48174 0.206677H10.7551V3.07672e-07H2.48174C1.11628 3.07672e-07 9.08249e-07 1.11782 9.08249e-07 2.48516V2.69184C-0.00125758 1.3245 1.11628 0.206677 2.48174 0.206677Z" transform="translate(10.3926 9.94141)" fill="white"/>
<path opacity="0.2" d="M2.48174 0.206677H9.92697V0H2.48174C1.11628 0 -7.68121e-08 1.11782 -7.68121e-08 2.48516V2.69184C-7.68121e-08 1.3245 1.11754 0.206677 2.48174 0.206677Z" transform="translate(0.464355 20.7109)" fill="white"/>
<path opacity="0.2" d="M8.21039 0H2.52327C1.13768 0 0 1.13924 0 2.52675V2.73343C0 1.34592 1.13768 0.206677 2.52327 0.206677H8.21039C9.59599 0.206677 10.7337 1.34592 10.7337 2.73343V2.52675C10.7337 1.13924 9.59599 0 8.21039 0Z" transform="translate(21.1675)" fill="white"/>
<path opacity="0.2" d="M28.9138 2.52675H2.48174C1.11628 2.52675 -7.68122e-08 1.40893 -7.68122e-08 0.0415862V0.248265C-7.68122e-08 1.61561 1.11628 2.73343 2.48174 2.73343H28.8924C30.278 2.73343 31.4157 1.59418 31.4157 0.206677V1.23069e-06C31.4371 1.38751 30.2994 2.52675 28.9138 2.52675Z" transform="translate(0.464355 28.7471)" fill="#BF360C"/>
<path d="M28.9138 0H23.2267C21.8411 0 20.7034 1.13924 20.7034 2.52675V9.94065H12.4301C11.0646 9.94065 9.94836 11.0585 9.94836 12.4258V20.7105H2.48174C1.11628 20.7105 -7.68121e-08 21.8283 -7.68121e-08 23.1957V28.9952C-7.68121e-08 30.3626 1.11628 31.4804 2.48174 31.4804H28.9138C30.2994 31.4804 31.4371 30.3412 31.4371 28.9537V2.52675C31.4371 1.13924 30.2994 0 28.9138 0Z" transform="translate(0.464844)" fill="url(#paint3_linear)"/>
</g>
<defs>
<linearGradient id="paint0_linear" x2="1" gradientUnits="userSpaceOnUse" gradientTransform="translate(-9.16359e-05 -0.0105406) scale(31.4577 31.5011)">
<stop stop-color="white" stop-opacity="0.1"/>
<stop offset="1" stop-color="white" stop-opacity="0"/>
</linearGradient>
<linearGradient id="paint1_linear" x2="1" gradientUnits="userSpaceOnUse" gradientTransform="translate(-9.16359e-05 -0.0105406) scale(31.4577 31.5011)">
<stop stop-color="white" stop-opacity="0.1"/>
<stop offset="1" stop-color="white" stop-opacity="0"/>
</linearGradient>
<linearGradient id="paint2_linear" x2="1" gradientUnits="userSpaceOnUse" gradientTransform="translate(2.33829 -2.23746) scale(21.6765 21.7064) rotate(45)">
<stop stop-color="#BF360C" stop-opacity="0.2"/>
<stop offset="1" stop-color="#BF360C" stop-opacity="0.02"/>
</linearGradient>
<linearGradient id="paint3_linear" x2="1" gradientUnits="userSpaceOnUse" gradientTransform="translate(20.7094 0.386755) scale(28.7595 28.7991) rotate(45)">
<stop stop-color="white" stop-opacity="0.1"/>
<stop offset="1" stop-color="white" stop-opacity="0"/>
</linearGradient>
</defs>
</svg>
