<svg width="36" height="34" viewBox="0 0 36 34" fill="none" xmlns="http://www.w3.org/2000/svg">
<g style="mix-blend-mode:luminosity">
<path d="M0 22.4063H32.2488V2.62489e-07H0V22.4063Z" transform="translate(0.94873 0.874023)" fill="#FFCC00"/>
<path d="M-6.53838e-08 11.2074H6.1961V2.62489e-07H-6.53838e-08V11.2074Z" transform="translate(9.62988 22.0342)" fill="#FFCC00"/>
<path d="M5.2307e-07 3.75015H6.20467V2.62489e-07H5.2307e-07V3.75015Z" transform="translate(18.3115 22.0342)" fill="#FFCC00"/>
<path d="M0 11.2074H6.20467V2.62489e-07H0V11.2074Z" transform="translate(0.94873 22.0342)" fill="#FFCC00"/>
<path d="M-5.2307e-07 2.62489e-07L1.85969 8.71307H8.06435L6.20466 2.62489e-07H-5.2307e-07Z" transform="translate(26.9927 23.2812)" fill="#EFB30E"/>
<path d="M-3.26919e-08 1.24718H19.8395V3.28112e-08H-3.26919e-08V1.24718Z" transform="translate(7.15332 8.33984)" fill="black"/>
<path d="M-3.26919e-08 1.23858H19.8395V-1.31245e-07H-3.26919e-08V1.23858Z" transform="translate(7.15332 12.082)" fill="black"/>
<path d="M-3.26919e-08 1.23858H12.4008V0H-3.26919e-08V1.23858Z" transform="translate(7.15332 15.8154)" fill="black"/>
</g>
</svg>
