<svg width="36" height="37" viewBox="0 0 36 37" fill="none" xmlns="http://www.w3.org/2000/svg">
<path d="M32.3474 0H3.57782C1.61737 0 0 1.61932 0 3.58213V32.3864C0 34.3492 1.61737 35.9685 3.57782 35.9685H32.3474C34.3079 35.9685 35.9252 34.3492 35.9252 32.3864V3.58213C35.9252 1.61932 34.3079 0 32.3474 0ZM27.6423 19.7753C27.7894 19.9716 28.1815 20.3642 28.8186 20.953L28.8676 21.0021C30.2399 22.2779 31.1711 23.3575 31.6613 24.2407C31.7103 24.2898 31.7103 24.3389 31.7593 24.437C31.8083 24.4861 31.8083 24.6333 31.8573 24.8296C31.9063 25.0258 31.9063 25.1731 31.8573 25.3203C31.8083 25.4675 31.7103 25.6147 31.5142 25.7128C31.3182 25.811 31.0241 25.9091 30.632 25.9091L26.9562 25.9582C26.7111 26.0073 26.4661 25.9582 26.123 25.9091C25.8289 25.811 25.5839 25.7128 25.3878 25.5656L25.0938 25.3693C24.7997 25.1731 24.4566 24.8786 24.0645 24.437C23.6724 23.9954 23.3293 23.6519 23.0843 23.3084C22.7902 22.9649 22.4962 22.6705 22.2021 22.4742C21.908 22.2288 21.614 22.1798 21.3689 22.2288C21.3199 22.2288 21.3199 22.2779 21.2709 22.2779C21.2219 22.2779 21.1238 22.3761 21.0258 22.4742C20.9278 22.5723 20.8298 22.7195 20.7318 22.9158C20.6337 23.063 20.5357 23.3575 20.4867 23.6519C20.4377 23.9954 20.3887 24.3389 20.3887 24.7805C20.3887 24.9277 20.3887 25.0749 20.3397 25.1731C20.2907 25.2712 20.2906 25.3693 20.2416 25.4184L20.0946 25.5656C19.8986 25.7619 19.6535 25.86 19.3104 25.9091H17.644C16.9579 25.9582 16.2717 25.86 15.5366 25.6638C14.8014 25.4675 14.1642 25.2221 13.6251 24.8786C13.086 24.5842 12.5959 24.2407 12.1058 23.8972C11.6647 23.5537 11.3216 23.3084 11.0765 23.063L10.7335 22.7195C10.6354 22.6214 10.4884 22.4742 10.3414 22.2779C10.1943 22.0816 9.80225 21.64 9.31213 20.953C8.77301 20.266 8.2829 19.53 7.79279 18.7449C7.30267 17.9597 6.71454 16.9292 6.02838 15.6534C5.34222 14.3776 4.70508 13.0527 4.11694 11.6787C4.06793 11.5315 4.01892 11.3843 4.01892 11.2862C4.01892 11.188 4.01892 11.0899 4.06793 11.0408L4.11694 10.9427C4.26398 10.7464 4.55804 10.6483 4.95013 10.6483L8.92004 10.5992C9.01807 10.5992 9.1651 10.6483 9.26312 10.6973C9.36115 10.7464 9.45917 10.7955 9.50818 10.8445L9.55719 10.8936C9.70422 10.9917 9.85126 11.139 9.90027 11.3352C10.0963 11.8259 10.3414 12.3166 10.5864 12.8564C10.8315 13.3962 11.0275 13.7888 11.1746 14.0341L11.4196 14.4757C11.7137 15.0646 11.9587 15.5553 12.2528 15.9969C12.4979 16.4385 12.7429 16.733 12.939 16.9783C13.135 17.2237 13.3311 17.42 13.5271 17.5181C13.7231 17.6653 13.8702 17.7144 14.0172 17.7144C14.1642 17.7144 14.2623 17.6653 14.4093 17.6653L14.4583 17.6162C14.5073 17.5672 14.5563 17.469 14.6544 17.2727C14.7524 17.0765 14.8014 16.8802 14.8504 16.5858C14.8994 16.2913 14.9484 15.8988 14.9974 15.4081C15.0464 14.9174 15.0464 14.2795 14.9974 13.5925C14.9974 13.1999 14.9484 12.8564 14.8504 12.5129C14.8014 12.1694 14.7034 11.9732 14.6544 11.8259L14.5563 11.7769C14.3113 11.4334 13.9192 11.2371 13.3311 11.139C13.184 11.139 13.233 10.9917 13.3801 10.7955C13.5271 10.5992 13.7231 10.452 13.9192 10.3538C14.4093 10.1085 15.5856 9.96127 17.399 10.0103C18.1832 10.0103 18.8693 10.0594 19.3594 10.2066C19.5555 10.2557 19.7025 10.3048 19.8496 10.4029C19.9966 10.501 20.0946 10.5992 20.1436 10.7464C20.1926 10.8936 20.2416 11.0408 20.2907 11.188C20.3397 11.3352 20.3397 11.5806 20.3397 11.8259C20.3397 12.0713 20.3397 12.3657 20.3397 12.6111C20.3397 12.8564 20.3397 13.1999 20.2907 13.6415C20.2907 14.0832 20.2907 14.4757 20.2907 14.8192C20.2907 14.9174 20.2907 15.1136 20.2907 15.4081C20.2907 15.7025 20.2907 15.9478 20.2907 16.0951C20.2907 16.2423 20.2907 16.4385 20.3397 16.6839C20.3887 16.9292 20.4377 17.1255 20.4867 17.2727C20.5847 17.42 20.6827 17.5181 20.8298 17.6162C20.9278 17.6162 20.9768 17.6653 21.0748 17.6653C21.1729 17.6653 21.2709 17.6162 21.4669 17.5181C21.614 17.3709 21.81 17.2237 22.006 17.0274C22.2021 16.8311 22.4471 16.4876 22.7412 16.046C23.0353 15.6044 23.3784 15.0646 23.7214 14.4757C24.3096 13.4453 24.7997 12.3657 25.2898 11.188C25.3388 11.0899 25.3878 10.9917 25.4368 10.9427C25.4858 10.8936 25.5349 10.7955 25.5839 10.7955L25.6329 10.7464L25.6819 10.6973C25.6819 10.6973 25.7309 10.6973 25.8779 10.6483C26.025 10.5992 26.123 10.5992 26.172 10.6483L30.338 10.5992C30.73 10.5501 31.0241 10.5501 31.2692 10.6483C31.5142 10.6973 31.6613 10.7955 31.7103 10.8936L31.8083 11.0408C32.0533 11.6787 31.3182 13.1018 29.6518 15.3099C29.4067 15.6044 29.1127 16.046 28.7206 16.5367C27.9854 17.5181 27.5443 18.156 27.3973 18.4504C27.2993 18.9902 27.3483 19.3828 27.6423 19.7753Z" transform="translate(0.074707 0.705078)" fill="#4A76A8" style="mix-blend-mode:luminosity"/>
</svg>
