<svg width="39" height="40" viewBox="0 0 39 40" fill="none" xmlns="http://www.w3.org/2000/svg">
<path d="M12.3684 15.9471C11.6795 15.9471 10.9906 15.9471 10.3331 15.9471C10.1452 14.2239 10.7715 11.6235 13.0886 10.8716C14.2784 10.4956 15.4683 10.5896 16.5956 11.0282C17.8794 11.5295 19.1005 12.1561 20.3844 12.6574C21.2611 13.002 22.1378 13.3153 23.0146 13.5973C23.2338 13.66 23.5156 13.66 23.7661 13.66C24.5176 13.6913 25.0812 13.3153 25.3317 12.6261C25.4883 12.1874 25.5509 11.7175 25.6448 11.2789C25.6761 11.1222 25.6761 10.9342 25.6761 10.7463C26.365 10.7463 27.0539 10.7463 27.7428 10.7463C27.8054 12.0935 27.6801 13.378 26.8973 14.5059C26.0206 15.7591 24.7368 16.1351 23.2651 16.0097C21.8874 15.9157 20.6349 15.3518 19.3824 14.7879C18.4117 14.3492 17.5036 13.8793 16.5329 13.4407C16.1259 13.2527 15.6875 13.1274 15.2491 13.002C13.6835 12.6574 12.7128 13.3153 12.4936 14.9132C12.431 15.2891 12.431 15.6024 12.3684 15.9471ZM17.8167 30.6409C18.6935 30.6409 19.5389 30.6409 20.4157 30.6409C20.4157 26.1607 20.4157 21.6805 20.4157 17.169C19.5702 16.8556 18.6935 16.5737 17.8167 16.229C17.8167 21.0539 17.8167 25.8474 17.8167 30.6409ZM38.7334 19.3621C38.7334 8.67847 30.0286 0 19.351 0C8.67353 0 0 8.67847 0 19.3621C0 30.0457 8.67353 38.7241 19.351 38.7241C30.0286 38.7555 38.7334 30.0457 38.7334 19.3621ZM37.4809 19.3621C37.4809 29.3564 29.371 37.4709 19.3824 37.4709C9.39371 37.4709 1.25249 29.3564 1.25249 19.3621C1.25249 9.36773 9.3624 1.25321 19.351 1.25321C29.3397 1.25321 37.4809 9.36773 37.4809 19.3621Z" transform="translate(0 0.533203)" fill="black"/>
</svg>
