<svg width="34" height="34" viewBox="0 0 34 34" fill="none" xmlns="http://www.w3.org/2000/svg">
<g style="mix-blend-mode:luminosity">
<path d="M2.94443 32.3108H11.0299V32.288L3.56575e-07 6.78603e-10V31.0812C0.747793 31.8326 1.77601 32.3108 2.94443 32.3108Z" transform="translate(22.2827 0.794922)" fill="#0F9D59"/>
<path d="M-3.56575e-07 16.1668L4.62697 29.6695C4.83728 30.216 5.16444 30.6941 5.56171 31.104V0.0455403L5.53834 0L-3.56575e-07 16.1668Z" transform="translate(16.7212 0.749023)" fill="#0A6E3D"/>
<path d="M11.0767 0L0 32.3336V32.3564H8.0855C9.25393 32.3564 10.3055 31.8782 11.0533 31.1268C11.4506 30.7169 11.7777 30.2387 11.988 29.6923L22.1533 0H11.0767Z" transform="translate(0.105957 0.749023)" fill="#4284F4"/>
</g>
</svg>
