<svg width="31" height="31" viewBox="0 0 31 31" fill="none" xmlns="http://www.w3.org/2000/svg">
<path d="M5.16667 10.416C8.02014 10.416 10.3333 8.0843 10.3333 5.208C10.3333 2.3317 8.02014 0 5.16667 0C2.3132 0 0 2.3317 0 5.208C0 8.0843 2.3132 10.416 5.16667 10.416Z" transform="translate(10.333 10.291)" fill="#878787"/>
<path d="M30.8708 9.052C30.7417 7.44 30.4833 6.324 30.0958 5.332C29.7083 4.34 29.1917 3.472 28.2875 2.604C27.3833 1.736 26.6083 1.24 25.575 0.868C24.5417 0.496 23.5083 0.248 21.8292 0.124C20.2792 0 19.7625 0 15.5 0C11.2375 0 10.7208 0 9.04167 0.124C7.49167 0.124 6.32917 0.372 5.29583 0.868C4.2625 1.24 3.4875 1.736 2.58333 2.604C1.67917 3.472 1.1625 4.34 0.775 5.332C0.3875 6.324 0.129167 7.44 0.129167 9.052C0 10.788 0 11.284 0 15.5C0 19.716 0 20.212 0.129167 21.948C0.258333 23.56 0.516667 24.676 0.904167 25.668C1.29167 26.66 1.80833 27.528 2.7125 28.396C3.61667 29.264 4.39167 29.76 5.425 30.132C6.45833 30.504 7.49167 30.752 9.17083 30.876C10.7208 31 11.2375 31 15.5 31C19.7625 31 20.2792 31 21.8292 30.876C23.5083 30.752 24.5417 30.504 25.575 30.132C26.6083 29.76 27.5125 29.264 28.2875 28.396C29.1917 27.528 29.7083 26.66 30.0958 25.668C30.4833 24.676 30.7417 23.56 30.8708 21.948C31 20.336 31 19.716 31 15.5C31 11.284 31 10.788 30.8708 9.052ZM15.5 23.436C11.1083 23.436 7.49167 19.84 7.49167 15.5C7.49167 11.16 11.1083 7.564 15.5 7.564C19.8917 7.564 23.5083 11.16 23.5083 15.5C23.5083 19.84 19.8917 23.436 15.5 23.436ZM23.7667 9.052C22.7333 9.052 21.9583 8.184 21.9583 7.192C21.9583 6.2 22.7333 5.332 23.7667 5.332C24.8 5.332 25.575 6.2 25.575 7.192C25.575 8.184 24.8 9.052 23.7667 9.052Z" fill="#878787"/>
</svg>
