<?xml version="1.0" standalone="no"?>
<!DOCTYPE svg PUBLIC "-//W3C//DTD SVG 20010904//EN"
 "http://www.w3.org/TR/2001/REC-SVG-20010904/DTD/svg10.dtd">
<svg version="1.0" xmlns="http://www.w3.org/2000/svg"
 width="1000.000000pt" height="1000.000000pt" viewBox="0 0 1000.000000 1000.000000"
 preserveAspectRatio="xMidYMid meet">
<metadata>
Created by potrace 1.11, written by Peter Selinger 2001-2013
</metadata>
<g transform="translate(0.000000,1000.000000) scale(0.100000,-0.100000)"
fill="#000000" stroke="none">
<path d="M2187 7764 c-1 -2 -27 -6 -57 -9 -151 -17 -407 -102 -773 -256 -234
-99 -341 -140 -502 -194 -44 -14 -114 -44 -155 -65 -115 -60 -211 -102 -245
-107 -49 -8 -110 -38 -154 -78 -71 -64 -156 -211 -183 -315 -23 -89 -27 -108
-33 -155 -11 -100 -16 -125 -41 -195 -34 -99 -39 -135 -38 -285 1 -185 35
-303 122 -418 77 -101 214 -152 337 -124 22 5 49 11 60 13 26 5 264 82 290 94
19 9 151 55 188 67 25 8 24 -1 -14 -92 -16 -39 -168 -502 -212 -645 -147 -475
-232 -827 -253 -1045 -12 -121 -6 -355 10 -435 1 -8 6 -37 10 -65 41 -269 184
-566 366 -759 115 -123 307 -235 475 -279 115 -31 187 -39 325 -37 105 1 123
2 202 15 69 12 77 13 162 35 347 88 724 326 1061 668 97 98 115 113 115 92 0
-5 18 -48 41 -95 86 -182 227 -356 384 -473 135 -101 335 -184 520 -216 86
-15 334 -19 393 -5 21 4 54 10 74 13 116 18 271 69 423 140 126 59 268 136
273 148 2 4 8 8 14 8 5 0 24 10 41 23 17 12 40 27 49 32 35 20 134 90 182 130
32 26 51 36 53 28 3 -7 27 -47 54 -88 133 -205 345 -349 610 -414 116 -29 134
-31 284 -36 319 -9 611 76 954 280 154 92 388 298 552 486 100 116 103 119
191 242 156 218 284 444 355 627 30 78 78 239 88 295 14 83 14 275 0 321 -7
24 -11 44 -9 44 16 0 -68 133 -110 174 -211 207 -530 147 -843 -159 -105 -103
-171 -187 -241 -305 -109 -187 -116 -191 -281 -195 -64 -1 -135 -7 -158 -14
-39 -11 -66 -7 -91 14 -1 1 49 157 113 346 64 189 136 405 160 479 24 74 52
162 64 195 57 168 217 716 237 810 2 11 16 67 30 124 14 58 28 116 31 130 2
14 13 64 23 111 10 47 21 96 23 110 25 134 48 261 52 290 3 19 8 51 11 70 3
19 7 88 9 152 7 297 -104 465 -322 486 -43 4 -96 4 -118 1 -22 -4 -55 -10 -73
-13 -34 -7 -162 -55 -216 -83 -33 -17 -163 -100 -183 -118 -6 -5 -33 -28 -60
-50 -108 -88 -229 -241 -297 -375 -27 -53 -142 -396 -176 -525 -39 -147 -242
-745 -289 -850 -5 -11 -33 -76 -61 -145 -195 -466 -448 -841 -710 -1052 -51
-41 -166 -106 -202 -114 -12 -3 -36 -8 -53 -12 -16 -4 -66 -7 -110 -6 -64 0
-91 5 -137 26 -160 74 -235 241 -225 498 5 117 8 147 23 210 3 14 8 36 10 50
7 37 59 233 114 425 26 94 60 217 75 275 15 58 50 164 77 235 169 436 302 926
315 1155 16 292 -107 503 -323 553 -268 63 -580 -112 -826 -463 -92 -131 -146
-247 -228 -485 -22 -66 -45 -129 -50 -140 -15 -36 -159 -452 -229 -665 -69
-210 -106 -290 -236 -520 -233 -410 -453 -764 -537 -865 -149 -177 -279 -278
-390 -300 -18 -4 -73 -9 -123 -11 -80 -3 -96 0 -143 22 -90 44 -131 121 -136
259 -6 184 49 395 219 840 57 149 118 311 135 360 36 98 69 186 165 430 35 88
66 172 70 188 4 15 11 30 16 33 5 3 9 12 9 21 0 8 6 29 14 46 13 29 93 261
102 297 2 8 14 56 28 107 13 50 27 106 31 125 62 335 49 561 -41 709 -59 97
-154 163 -269 187 -44 9 -250 14 -258 6z"/>
<path d="M9305 3296 c-259 -41 -374 -125 -448 -331 -73 -204 -50 -420 55 -511
35 -30 46 -36 189 -103 47 -22 105 -58 129 -81 l44 -42 101 -5 c385 -21 600
209 622 664 l6 111 -30 15 c-31 16 -93 80 -158 164 -76 97 -141 123 -315 128
-63 2 -151 -3 -195 -9z"/>
</g>
</svg>
