<svg width="31" height="31" viewBox="0 0 31 31" fill="none" xmlns="http://www.w3.org/2000/svg">
<path d="M30.83 9.06054C30.6941 7.44259 30.4561 6.34238 30.0482 5.33925C29.6743 4.33612 29.1305 3.49478 28.2467 2.62109C27.3289 1.74739 26.5811 1.262 25.5274 0.873695C24.5077 0.517745 23.4539 0.258873 21.7884 0.129436C20.2588 0 19.7489 0 15.5 0C11.2511 0 10.7412 0 9.04167 0.129436C7.47807 0.129436 6.32237 0.388309 5.30263 0.873695C4.2829 1.22965 3.5011 1.74739 2.58333 2.62109C1.66557 3.49478 1.1557 4.36848 0.781798 5.33925C0.407895 6.31002 0.135965 7.44259 0.135965 9.06054C0 10.7756 0 11.2933 0 15.5C0 19.7067 0 20.2244 0.135965 21.9395C0.27193 23.5574 0.509868 24.6576 0.917763 25.6608C1.29167 26.6639 1.83553 27.5052 2.7193 28.3789C3.63706 29.2526 4.38487 29.738 5.4386 30.1263C6.45833 30.4823 7.51206 30.7411 9.17763 30.8706C10.7412 31 11.2511 31 15.5 31C19.7489 31 20.2588 31 21.8224 30.8706C23.4879 30.7411 24.5417 30.5146 25.5614 30.1263C26.5811 29.7704 27.4989 29.2526 28.2807 28.3789C29.1985 27.5052 29.7083 26.6315 30.0822 25.6608C30.4561 24.6576 30.7281 23.5574 30.864 21.9395C31 20.3215 31 19.7067 31 15.5C30.966 11.2933 30.966 10.7756 30.83 9.06054ZM23.8279 17.5386C24.6096 18.2505 25.4254 18.9301 26.1393 19.739C26.4452 20.095 26.7511 20.4509 26.955 20.8716C27.261 21.4541 26.989 22.1013 26.4452 22.1336H23.0121C22.1283 22.1983 21.4145 21.8747 20.8366 21.2923C20.3607 20.8392 19.9189 20.3539 19.477 19.8685C19.307 19.6743 19.1031 19.4802 18.8651 19.3507C18.3893 19.0595 17.9814 19.1566 17.7094 19.6096C17.4375 20.095 17.3695 20.6127 17.3355 21.1305C17.3015 21.9071 17.0636 22.1013 16.2478 22.1336C14.5143 22.1983 12.8827 21.9718 11.3531 21.1305C9.99342 20.3862 8.97368 19.3507 8.05592 18.1858C6.28838 15.9207 4.92873 13.3967 3.70504 10.8403C3.43311 10.2578 3.63706 9.93424 4.31689 9.93424C5.4386 9.90188 6.56031 9.90188 7.68202 9.93424C8.1239 9.93424 8.42982 10.1931 8.59978 10.5814C9.21162 12.0052 9.95943 13.3319 10.8772 14.5939C11.1151 14.9175 11.3871 15.2735 11.727 15.5C12.1349 15.7589 12.4408 15.6618 12.6107 15.2411C12.7127 14.9823 12.7807 14.691 12.8147 14.3998C12.9167 13.429 12.9167 12.4259 12.7467 11.4551C12.6447 10.8403 12.3048 10.452 11.659 10.3225C11.3191 10.2578 11.3871 10.1608 11.523 9.9666C11.795 9.67536 12.0669 9.48121 12.5768 9.48121H16.4518C17.0636 9.61065 17.1996 9.86952 17.2675 10.452V14.5292C17.2675 14.7557 17.3695 15.4353 17.8114 15.5647C18.1513 15.6618 18.3893 15.4029 18.5932 15.2088C19.511 14.2704 20.1908 13.1701 20.7686 12.0376C21.0406 11.5198 21.2445 11.0021 21.4825 10.4843C21.6524 10.096 21.8904 9.90188 22.3662 9.90188H26.0713C26.1732 9.90188 26.3092 9.90188 26.4112 9.93424C27.023 10.0313 27.227 10.2902 27.023 10.8727C26.7171 11.7787 26.1393 12.5553 25.5274 13.2996C24.9156 14.1086 24.2357 14.9175 23.6239 15.7265C23.08 16.5031 23.148 16.8914 23.8279 17.5386Z" fill="#878787"/>
</svg>
